{
    "asset" : {
        "generator" : "Khronos glTF Blender I/O v1.8.19",
        "version" : "2.0"
    },
    "scene" : 0,
    "scenes" : [
        {
            "name" : "Scene",
            "nodes" : [
                0
            ]
        }
    ],
    "nodes" : [
        {
            "mesh" : 0,
            "name" : "13517_Beach_Ball_v2_L3",
            "rotation" : [
                0.011216395534574986,
                -0.04619769752025604,
                0.0005187581991776824,
                0.9988692998886108
            ],
            "scale" : [
                -0.13526582717895508,
                -0.13526582717895508,
                -0.13526582717895508
            ],
            "translation" : [
                0,
                4.221888542175293,
                0
            ]
        }
    ],
    "materials" : [
        {
            "doubleSided" : true,
            "name" : "Beach_Ball_transparent_plastic",
            "pbrMetallicRoughness" : {
                "baseColorFactor" : [
                    1,
                    1,
                    1,
                    0.6000000238418579
                ],
                "metallicFactor" : 0,
                "roughnessFactor" : 0.8267949223518372
            }
        },
        {
            "doubleSided" : true,
            "name" : "Beach_Ball_rubber",
            "pbrMetallicRoughness" : {
                "baseColorTexture" : {
                    "index" : 0
                },
                "metallicFactor" : 0,
                "roughnessFactor" : 0.8387548327445984
            }
        }
    ],
    "meshes" : [
        {
            "name" : "13517_Beach_Ball_v2_L3",
            "primitives" : [
                {
                    "attributes" : {
                        "POSITION" : 0,
                        "NORMAL" : 1,
                        "TEXCOORD_0" : 2
                    },
                    "indices" : 3,
                    "material" : 0
                },
                {
                    "attributes" : {
                        "POSITION" : 4,
                        "NORMAL" : 5,
                        "TEXCOORD_0" : 6
                    },
                    "indices" : 7,
                    "material" : 1
                }
            ]
        }
    ],
    "textures" : [
        {
            "sampler" : 0,
            "source" : 0
        }
    ],
    "images" : [
        {
            "bufferView" : 8,
            "mimeType" : "image/jpeg",
            "name" : "Beach_Ball_diffuse"
        }
    ],
    "accessors" : [
        {
            "bufferView" : 0,
            "componentType" : 5126,
            "count" : 480,
            "max" : [
                0.8450000286102295,
                30.975099563598633,
                0.6417999863624573
            ],
            "min" : [
                -1.1030000448226929,
                30.393999099731445,
                -0.6313999891281128
            ],
            "type" : "VEC3"
        },
        {
            "bufferView" : 1,
            "componentType" : 5126,
            "count" : 480,
            "type" : "VEC3"
        },
        {
            "bufferView" : 2,
            "componentType" : 5126,
            "count" : 480,
            "type" : "VEC2"
        },
        {
            "bufferView" : 3,
            "componentType" : 5123,
            "count" : 1488,
            "type" : "SCALAR"
        },
        {
            "bufferView" : 4,
            "componentType" : 5126,
            "count" : 45453,
            "max" : [
                15.366499900817871,
                30.662500381469727,
                15.305500030517578
            ],
            "min" : [
                -15.10789966583252,
                0.011599999852478504,
                -15.152000427246094
            ],
            "type" : "VEC3"
        },
        {
            "bufferView" : 5,
            "componentType" : 5126,
            "count" : 45453,
            "type" : "VEC3"
        },
        {
            "bufferView" : 6,
            "componentType" : 5126,
            "count" : 45453,
            "type" : "VEC2"
        },
        {
            "bufferView" : 7,
            "componentType" : 5123,
            "count" : 264096,
            "type" : "SCALAR"
        }
    ],
    "bufferViews" : [
        {
            "buffer" : 0,
            "byteLength" : 5760,
            "byteOffset" : 0
        },
        {
            "buffer" : 0,
            "byteLength" : 5760,
            "byteOffset" : 5760
        },
        {
            "buffer" : 0,
            "byteLength" : 3840,
            "byteOffset" : 11520
        },
        {
            "buffer" : 0,
            "byteLength" : 2976,
            "byteOffset" : 15360
        },
        {
            "buffer" : 0,
            "byteLength" : 545436,
            "byteOffset" : 18336
        },
        {
            "buffer" : 0,
            "byteLength" : 545436,
            "byteOffset" : 563772
        },
        {
            "buffer" : 0,
            "byteLength" : 363624,
            "byteOffset" : 1109208
        },
        {
            "buffer" : 0,
            "byteLength" : 528192,
            "byteOffset" : 1472832
        },
        {
            "buffer" : 0,
            "byteLength" : 158609,
            "byteOffset" : 2001024
        }
    ],
    "samplers" : [
        {
            "magFilter" : 9729,
            "minFilter" : 9987
        }
    ],
    "buffers" : [
        {
            "byteLength" : 2159636,
            "uri" : "data:application/octet-stream;base64,"
        }
    ]
}
