{
    "asset" : {
        "generator" : "Khronos glTF Blender I/O v1.8.19",
        "version" : "2.0"
    },
    "scene" : 0,
    "scenes" : [
        {
            "name" : "Scene",
            "nodes" : [
                0,
                1,
                2
            ]
        }
    ],
    "nodes" : [
        {
            "mesh" : 0,
            "name" : "static_rotor2",
            "rotation" : [
                0.7071068286895752,
                0,
                0,
                0.7071067094802856
            ]
        },
        {
            "mesh" : 1,
            "name" : "static_rotor",
            "rotation" : [
                0.7071068286895752,
                0,
                0,
                0.7071067094802856
            ]
        },
        {
            "mesh" : 2,
            "name" : "chassis",
            "rotation" : [
                0.7071068286895752,
                0,
                0,
                0.7071067094802856
            ]
        }
    ],
    "materials" : [
        {
            "doubleSided" : true,
            "name" : "Mat_maverick.012_ec135.bmp",
            "pbrMetallicRoughness" : {
                "baseColorTexture" : {
                    "index" : 0
                },
                "metallicFactor" : 0,
                "roughnessFactor" : 0.6732679605484009
            }
        },
        {
            "doubleSided" : true,
            "name" : "Mat_maverick.011_ec1351.bmp",
            "pbrMetallicRoughness" : {
                "baseColorTexture" : {
                    "index" : 1
                },
                "metallicFactor" : 0,
                "roughnessFactor" : 0.6732679605484009
            }
        },
        {
            "doubleSided" : true,
            "name" : "Mat_maverick.008_ec135.bmp",
            "pbrMetallicRoughness" : {
                "baseColorTexture" : {
                    "index" : 2
                },
                "metallicFactor" : 0,
                "roughnessFactor" : 0.6732679605484009
            }
        },
        {
            "doubleSided" : true,
            "name" : "Mat_maverick.009_ec1351.bmp",
            "pbrMetallicRoughness" : {
                "baseColorTexture" : {
                    "index" : 3
                },
                "metallicFactor" : 0,
                "roughnessFactor" : 0.6732679605484009
            }
        },
        {
            "doubleSided" : true,
            "name" : "Mat_maverick.010",
            "pbrMetallicRoughness" : {
                "baseColorFactor" : [
                    0,
                    0,
                    0,
                    0.3921569883823395
                ],
                "metallicFactor" : 0,
                "roughnessFactor" : 0.6732679605484009
            }
        }
    ],
    "meshes" : [
        {
            "name" : "static_rotor2",
            "primitives" : [
                {
                    "attributes" : {
                        "POSITION" : 0,
                        "NORMAL" : 1,
                        "TEXCOORD_0" : 2
                    },
                    "indices" : 3,
                    "material" : 0
                }
            ]
        },
        {
            "name" : "static_rotor",
            "primitives" : [
                {
                    "attributes" : {
                        "POSITION" : 4,
                        "NORMAL" : 5,
                        "TEXCOORD_0" : 6
                    },
                    "indices" : 7,
                    "material" : 1
                }
            ]
        },
        {
            "name" : "chassis",
            "primitives" : [
                {
                    "attributes" : {
                        "POSITION" : 8,
                        "NORMAL" : 9,
                        "TEXCOORD_0" : 10
                    },
                    "indices" : 11,
                    "material" : 2
                },
                {
                    "attributes" : {
                        "POSITION" : 12,
                        "NORMAL" : 13,
                        "TEXCOORD_0" : 14
                    },
                    "indices" : 15,
                    "material" : 3
                },
                {
                    "attributes" : {
                        "POSITION" : 16,
                        "NORMAL" : 17,
                        "TEXCOORD_0" : 18
                    },
                    "indices" : 19,
                    "material" : 4
                }
            ]
        }
    ],
    "textures" : [
        {
            "sampler" : 0,
            "source" : 0
        },
        {
            "sampler" : 0,
            "source" : 1
        },
        {
            "sampler" : 0,
            "source" : 0
        },
        {
            "sampler" : 0,
            "source" : 1
        }
    ],
    "images" : [
        {
            "bufferView" : 4,
            "mimeType" : "image/png",
            "name" : "ec135.bmp"
        },
        {
            "bufferView" : 9,
            "mimeType" : "image/png",
            "name" : "ec1351.bmp"
        }
    ],
    "accessors" : [
        {
            "bufferView" : 0,
            "componentType" : 5126,
            "count" : 240,
            "max" : [
                0.12067899852991104,
                6.719735145568848,
                -0.24356800317764282
            ],
            "min" : [
                -0.059950001537799835,
                5.67922306060791,
                -1.2281030416488647
            ],
            "type" : "VEC3"
        },
        {
            "bufferView" : 1,
            "componentType" : 5126,
            "count" : 240,
            "type" : "VEC3"
        },
        {
            "bufferView" : 2,
            "componentType" : 5126,
            "count" : 240,
            "type" : "VEC2"
        },
        {
            "bufferView" : 3,
            "componentType" : 5123,
            "count" : 1320,
            "type" : "SCALAR"
        },
        {
            "bufferView" : 5,
            "componentType" : 5126,
            "count" : 294,
            "max" : [
                5.082763195037842,
                5.180215835571289,
                -1.6091129779815674
            ],
            "min" : [
                -5.084860801696777,
                -5.013998985290527,
                -1.9515260457992554
            ],
            "type" : "VEC3"
        },
        {
            "bufferView" : 6,
            "componentType" : 5126,
            "count" : 294,
            "type" : "VEC3"
        },
        {
            "bufferView" : 7,
            "componentType" : 5126,
            "count" : 294,
            "type" : "VEC2"
        },
        {
            "bufferView" : 8,
            "componentType" : 5123,
            "count" : 1440,
            "type" : "SCALAR"
        },
        {
            "bufferView" : 10,
            "componentType" : 5126,
            "count" : 10741,
            "max" : [
                1.4319250583648682,
                7.555828094482422,
                1.3969639539718628
            ],
            "min" : [
                -1.4718960523605347,
                -3.6191790103912354,
                -2.557797908782959
            ],
            "type" : "VEC3"
        },
        {
            "bufferView" : 11,
            "componentType" : 5126,
            "count" : 10741,
            "type" : "VEC3"
        },
        {
            "bufferView" : 12,
            "componentType" : 5126,
            "count" : 10741,
            "type" : "VEC2"
        },
        {
            "bufferView" : 13,
            "componentType" : 5123,
            "count" : 53196,
            "type" : "SCALAR"
        },
        {
            "bufferView" : 14,
            "componentType" : 5126,
            "count" : 2299,
            "max" : [
                0.8927320241928101,
                2.6833229064941406,
                0.973347008228302
            ],
            "min" : [
                -1.1172950267791748,
                -3.427886962890625,
                -1.5187439918518066
            ],
            "type" : "VEC3"
        },
        {
            "bufferView" : 15,
            "componentType" : 5126,
            "count" : 2299,
            "type" : "VEC3"
        },
        {
            "bufferView" : 16,
            "componentType" : 5126,
            "count" : 2299,
            "type" : "VEC2"
        },
        {
            "bufferView" : 17,
            "componentType" : 5123,
            "count" : 11442,
            "type" : "SCALAR"
        },
        {
            "bufferView" : 18,
            "componentType" : 5126,
            "count" : 722,
            "max" : [
                0.8438050150871277,
                -0.598904013633728,
                0.6011819839477539
            ],
            "min" : [
                -0.8438050150871277,
                -3.4419140815734863,
                -0.8909649848937988
            ],
            "type" : "VEC3"
        },
        {
            "bufferView" : 19,
            "componentType" : 5126,
            "count" : 722,
            "type" : "VEC3"
        },
        {
            "bufferView" : 20,
            "componentType" : 5126,
            "count" : 722,
            "type" : "VEC2"
        },
        {
            "bufferView" : 21,
            "componentType" : 5123,
            "count" : 3780,
            "type" : "SCALAR"
        }
    ],
    "bufferViews" : [
        {
            "buffer" : 0,
            "byteLength" : 2880,
            "byteOffset" : 0
        },
        {
            "buffer" : 0,
            "byteLength" : 2880,
            "byteOffset" : 2880
        },
        {
            "buffer" : 0,
            "byteLength" : 1920,
            "byteOffset" : 5760
        },
        {
            "buffer" : 0,
            "byteLength" : 2640,
            "byteOffset" : 7680
        },
        {
            "buffer" : 0,
            "byteLength" : 239688,
            "byteOffset" : 10320
        },
        {
            "buffer" : 0,
            "byteLength" : 3528,
            "byteOffset" : 250008
        },
        {
            "buffer" : 0,
            "byteLength" : 3528,
            "byteOffset" : 253536
        },
        {
            "buffer" : 0,
            "byteLength" : 2352,
            "byteOffset" : 257064
        },
        {
            "buffer" : 0,
            "byteLength" : 2880,
            "byteOffset" : 259416
        },
        {
            "buffer" : 0,
            "byteLength" : 152491,
            "byteOffset" : 262296
        },
        {
            "buffer" : 0,
            "byteLength" : 128892,
            "byteOffset" : 414788
        },
        {
            "buffer" : 0,
            "byteLength" : 128892,
            "byteOffset" : 543680
        },
        {
            "buffer" : 0,
            "byteLength" : 85928,
            "byteOffset" : 672572
        },
        {
            "buffer" : 0,
            "byteLength" : 106392,
            "byteOffset" : 758500
        },
        {
            "buffer" : 0,
            "byteLength" : 27588,
            "byteOffset" : 864892
        },
        {
            "buffer" : 0,
            "byteLength" : 27588,
            "byteOffset" : 892480
        },
        {
            "buffer" : 0,
            "byteLength" : 18392,
            "byteOffset" : 920068
        },
        {
            "buffer" : 0,
            "byteLength" : 22884,
            "byteOffset" : 938460
        },
        {
            "buffer" : 0,
            "byteLength" : 8664,
            "byteOffset" : 961344
        },
        {
            "buffer" : 0,
            "byteLength" : 8664,
            "byteOffset" : 970008
        },
        {
            "buffer" : 0,
            "byteLength" : 5776,
            "byteOffset" : 978672
        },
        {
            "buffer" : 0,
            "byteLength" : 7560,
            "byteOffset" : 984448
        }
    ],
    "samplers" : [
        {
            "magFilter" : 9729,
            "minFilter" : 9987
        }
    ],
    "buffers" : [
        {
            "byteLength" : 992008,
            "uri" : "data:application/octet-stream;base64,"
        }
    ]
}
