{
    "asset" : {
        "generator" : "Khronos glTF Blender I/O v1.8.19",
        "version" : "2.0"
    },
    "scene" : 0,
    "scenes" : [
        {
            "name" : "Scene",
            "nodes" : [
                0
            ]
        }
    ],
    "nodes" : [
        {
            "mesh" : 0,
            "name" : "Street environment_V01",
            "rotation" : [
                0.7071068286895752,
                0,
                0,
                0.7071067094802856
            ]
        }
    ],
    "materials" : [
        {
            "doubleSided" : true,
            "name" : "06___Default",
            "pbrMetallicRoughness" : {
                "metallicFactor" : 0,
                "roughnessFactor" : 0.8999999761581421
            }
        },
        {
            "doubleSided" : true,
            "name" : "Building_dnt",
            "pbrMetallicRoughness" : {
                "metallicFactor" : 0,
                "roughnessFactor" : 0.8999999761581421
            }
        },
        {
            "doubleSided" : true,
            "name" : "building_16",
            "pbrMetallicRoughness" : {
                "metallicFactor" : 0,
                "roughnessFactor" : 0.8999999761581421
            }
        },
        {
            "doubleSided" : true,
            "name" : "building_025",
            "pbrMetallicRoughness" : {
                "metallicFactor" : 0,
                "roughnessFactor" : 0.8999999761581421
            }
        },
        {
            "doubleSided" : true,
            "name" : "20___Defaulta",
            "pbrMetallicRoughness" : {
                "baseColorFactor" : [
                    0.27059999108314514,
                    0.27059999108314514,
                    0.27059999108314514,
                    1
                ],
                "metallicFactor" : 0,
                "roughnessFactor" : 0.8267949223518372
            }
        },
        {
            "doubleSided" : true,
            "name" : "20___Default",
            "pbrMetallicRoughness" : {
                "baseColorFactor" : [
                    0.30979999899864197,
                    0.45489999651908875,
                    0.058800000697374344,
                    1
                ],
                "metallicFactor" : 0,
                "roughnessFactor" : 0.8999999761581421
            }
        },
        {
            "doubleSided" : true,
            "name" : "orig_orig_orig_17___Default",
            "pbrMetallicRoughness" : {
                "metallicFactor" : 0,
                "roughnessFactor" : 0.6837722063064575
            }
        },
        {
            "doubleSided" : true,
            "name" : "3db___building_06",
            "pbrMetallicRoughness" : {
                "metallicFactor" : 0,
                "roughnessFactor" : 0.7902382016181946
            }
        },
        {
            "doubleSided" : true,
            "name" : "09___Default",
            "pbrMetallicRoughness" : {
                "metallicFactor" : 0,
                "roughnessFactor" : 0.8999999761581421
            }
        },
        {
            "doubleSided" : true,
            "name" : "Material__0",
            "pbrMetallicRoughness" : {
                "metallicFactor" : 0,
                "roughnessFactor" : 0.8999999761581421
            }
        },
        {
            "doubleSided" : true,
            "name" : "21___Default",
            "pbrMetallicRoughness" : {
                "baseColorFactor" : [
                    0.5881999731063843,
                    0.5881999731063843,
                    0.5881999731063843,
                    1
                ],
                "metallicFactor" : 0,
                "roughnessFactor" : 0.8999999761581421
            }
        }
    ],
    "meshes" : [
        {
            "name" : "Street environment_V01",
            "primitives" : [
                {
                    "attributes" : {
                        "POSITION" : 0,
                        "NORMAL" : 1,
                        "TEXCOORD_0" : 2
                    },
                    "indices" : 3,
                    "material" : 0
                },
                {
                    "attributes" : {
                        "POSITION" : 4,
                        "NORMAL" : 5,
                        "TEXCOORD_0" : 6
                    },
                    "indices" : 7,
                    "material" : 1
                },
                {
                    "attributes" : {
                        "POSITION" : 8,
                        "NORMAL" : 9,
                        "TEXCOORD_0" : 10
                    },
                    "indices" : 11,
                    "material" : 2
                },
                {
                    "attributes" : {
                        "POSITION" : 12,
                        "NORMAL" : 13,
                        "TEXCOORD_0" : 14
                    },
                    "indices" : 15,
                    "material" : 3
                },
                {
                    "attributes" : {
                        "POSITION" : 16,
                        "NORMAL" : 17,
                        "TEXCOORD_0" : 18
                    },
                    "indices" : 19,
                    "material" : 4
                },
                {
                    "attributes" : {
                        "POSITION" : 20,
                        "NORMAL" : 21,
                        "TEXCOORD_0" : 22
                    },
                    "indices" : 23,
                    "material" : 5
                },
                {
                    "attributes" : {
                        "POSITION" : 24,
                        "NORMAL" : 25,
                        "TEXCOORD_0" : 26
                    },
                    "indices" : 27,
                    "material" : 6
                },
                {
                    "attributes" : {
                        "POSITION" : 28,
                        "NORMAL" : 29,
                        "TEXCOORD_0" : 30
                    },
                    "indices" : 31,
                    "material" : 7
                },
                {
                    "attributes" : {
                        "POSITION" : 32,
                        "NORMAL" : 33,
                        "TEXCOORD_0" : 34
                    },
                    "indices" : 35,
                    "material" : 8
                },
                {
                    "attributes" : {
                        "POSITION" : 36,
                        "NORMAL" : 37,
                        "TEXCOORD_0" : 38
                    },
                    "indices" : 39,
                    "material" : 9
                },
                {
                    "attributes" : {
                        "POSITION" : 40,
                        "NORMAL" : 41,
                        "TEXCOORD_0" : 42
                    },
                    "indices" : 43,
                    "material" : 10
                }
            ]
        }
    ],
    "accessors" : [
        {
            "bufferView" : 0,
            "componentType" : 5126,
            "count" : 11486,
            "max" : [
                -14.482399940490723,
                -14.599100112915039,
                0.005400000140070915
            ],
            "min" : [
                -48.355098724365234,
                -38.47669982910156,
                -5.900100231170654
            ],
            "type" : "VEC3"
        },
        {
            "bufferView" : 1,
            "componentType" : 5126,
            "count" : 11486,
            "type" : "VEC3"
        },
        {
            "bufferView" : 2,
            "componentType" : 5126,
            "count" : 11486,
            "type" : "VEC2"
        },
        {
            "bufferView" : 3,
            "componentType" : 5123,
            "count" : 18612,
            "type" : "SCALAR"
        },
        {
            "bufferView" : 4,
            "componentType" : 5126,
            "count" : 3822,
            "max" : [
                35.75239944458008,
                -14.687399864196777,
                0
            ],
            "min" : [
                10.781900405883789,
                -28.52429962158203,
                -4.707799911499023
            ],
            "type" : "VEC3"
        },
        {
            "bufferView" : 5,
            "componentType" : 5126,
            "count" : 3822,
            "type" : "VEC3"
        },
        {
            "bufferView" : 6,
            "componentType" : 5126,
            "count" : 3822,
            "type" : "VEC2"
        },
        {
            "bufferView" : 7,
            "componentType" : 5123,
            "count" : 8352,
            "type" : "SCALAR"
        },
        {
            "bufferView" : 8,
            "componentType" : 5126,
            "count" : 1107,
            "max" : [
                47.16310119628906,
                -29.199399948120117,
                0.002400000113993883
            ],
            "min" : [
                10.925100326538086,
                -45.78710174560547,
                -4.787899971008301
            ],
            "type" : "VEC3"
        },
        {
            "bufferView" : 9,
            "componentType" : 5126,
            "count" : 1107,
            "type" : "VEC3"
        },
        {
            "bufferView" : 10,
            "componentType" : 5126,
            "count" : 1107,
            "type" : "VEC2"
        },
        {
            "bufferView" : 11,
            "componentType" : 5123,
            "count" : 2052,
            "type" : "SCALAR"
        },
        {
            "bufferView" : 12,
            "componentType" : 5126,
            "count" : 720,
            "max" : [
                43.58250045776367,
                -14.740599632263184,
                0.08079999685287476
            ],
            "min" : [
                -24.10300064086914,
                -45.66339874267578,
                -3.432300090789795
            ],
            "type" : "VEC3"
        },
        {
            "bufferView" : 13,
            "componentType" : 5126,
            "count" : 720,
            "type" : "VEC3"
        },
        {
            "bufferView" : 14,
            "componentType" : 5126,
            "count" : 720,
            "type" : "VEC2"
        },
        {
            "bufferView" : 15,
            "componentType" : 5123,
            "count" : 1728,
            "type" : "SCALAR"
        },
        {
            "bufferView" : 16,
            "componentType" : 5126,
            "count" : 48,
            "max" : [
                47.92020034790039,
                47.2489013671875,
                1.0364999771118164
            ],
            "min" : [
                -48.53070068359375,
                -47.084800720214844,
                -0.06880000233650208
            ],
            "type" : "VEC3"
        },
        {
            "bufferView" : 17,
            "componentType" : 5126,
            "count" : 48,
            "type" : "VEC3"
        },
        {
            "bufferView" : 18,
            "componentType" : 5126,
            "count" : 48,
            "type" : "VEC2"
        },
        {
            "bufferView" : 19,
            "componentType" : 5123,
            "count" : 72,
            "type" : "SCALAR"
        },
        {
            "bufferView" : 20,
            "componentType" : 5126,
            "count" : 25,
            "max" : [
                48.330101013183594,
                47.070098876953125,
                0
            ],
            "min" : [
                -48.387298583984375,
                -47.12220001220703,
                0
            ],
            "type" : "VEC3"
        },
        {
            "bufferView" : 21,
            "componentType" : 5126,
            "count" : 25,
            "type" : "VEC3"
        },
        {
            "bufferView" : 22,
            "componentType" : 5126,
            "count" : 25,
            "type" : "VEC2"
        },
        {
            "bufferView" : 23,
            "componentType" : 5123,
            "count" : 96,
            "type" : "SCALAR"
        },
        {
            "bufferView" : 24,
            "componentType" : 5126,
            "count" : 8970,
            "max" : [
                47.76890182495117,
                45.5099983215332,
                0.0027000000700354576
            ],
            "min" : [
                21.645200729370117,
                32.797401428222656,
                -10.213600158691406
            ],
            "type" : "VEC3"
        },
        {
            "bufferView" : 25,
            "componentType" : 5126,
            "count" : 8970,
            "type" : "VEC3"
        },
        {
            "bufferView" : 26,
            "componentType" : 5126,
            "count" : 8970,
            "type" : "VEC2"
        },
        {
            "bufferView" : 27,
            "componentType" : 5123,
            "count" : 14904,
            "type" : "SCALAR"
        },
        {
            "bufferView" : 28,
            "componentType" : 5126,
            "count" : 9184,
            "max" : [
                -26.8075008392334,
                -27.55069923400879,
                -0.00039999998989515007
            ],
            "min" : [
                -46.6968994140625,
                -46.77920150756836,
                -7.291600227355957
            ],
            "type" : "VEC3"
        },
        {
            "bufferView" : 29,
            "componentType" : 5126,
            "count" : 9184,
            "type" : "VEC3"
        },
        {
            "bufferView" : 30,
            "componentType" : 5126,
            "count" : 9184,
            "type" : "VEC2"
        },
        {
            "bufferView" : 31,
            "componentType" : 5123,
            "count" : 16374,
            "type" : "SCALAR"
        },
        {
            "bufferView" : 32,
            "componentType" : 5126,
            "count" : 18607,
            "max" : [
                47.60100173950195,
                42.444698333740234,
                0.01810000091791153
            ],
            "min" : [
                -46.8672981262207,
                9.972700119018555,
                -8.291000366210938
            ],
            "type" : "VEC3"
        },
        {
            "bufferView" : 33,
            "componentType" : 5126,
            "count" : 18607,
            "type" : "VEC3"
        },
        {
            "bufferView" : 34,
            "componentType" : 5126,
            "count" : 18607,
            "type" : "VEC2"
        },
        {
            "bufferView" : 35,
            "componentType" : 5123,
            "count" : 35022,
            "type" : "SCALAR"
        },
        {
            "bufferView" : 36,
            "componentType" : 5126,
            "count" : 32894,
            "max" : [
                17.448400497436523,
                45.895999908447266,
                0.003599999938160181
            ],
            "min" : [
                -46.32889938354492,
                26.583499908447266,
                -9.851799964904785
            ],
            "type" : "VEC3"
        },
        {
            "bufferView" : 37,
            "componentType" : 5126,
            "count" : 32894,
            "type" : "VEC3"
        },
        {
            "bufferView" : 38,
            "componentType" : 5126,
            "count" : 32894,
            "type" : "VEC2"
        },
        {
            "bufferView" : 39,
            "componentType" : 5123,
            "count" : 49752,
            "type" : "SCALAR"
        },
        {
            "bufferView" : 40,
            "componentType" : 5126,
            "count" : 1440,
            "max" : [
                17.848800659179688,
                18.498300552368164,
                1.0364999771118164
            ],
            "min" : [
                -22.20159912109375,
                -21.552099227905273,
                -0.08460000157356262
            ],
            "type" : "VEC3"
        },
        {
            "bufferView" : 41,
            "componentType" : 5126,
            "count" : 1440,
            "type" : "VEC3"
        },
        {
            "bufferView" : 42,
            "componentType" : 5126,
            "count" : 1440,
            "type" : "VEC2"
        },
        {
            "bufferView" : 43,
            "componentType" : 5123,
            "count" : 2160,
            "type" : "SCALAR"
        }
    ],
    "bufferViews" : [
        {
            "buffer" : 0,
            "byteLength" : 137832,
            "byteOffset" : 0
        },
        {
            "buffer" : 0,
            "byteLength" : 137832,
            "byteOffset" : 137832
        },
        {
            "buffer" : 0,
            "byteLength" : 91888,
            "byteOffset" : 275664
        },
        {
            "buffer" : 0,
            "byteLength" : 37224,
            "byteOffset" : 367552
        },
        {
            "buffer" : 0,
            "byteLength" : 45864,
            "byteOffset" : 404776
        },
        {
            "buffer" : 0,
            "byteLength" : 45864,
            "byteOffset" : 450640
        },
        {
            "buffer" : 0,
            "byteLength" : 30576,
            "byteOffset" : 496504
        },
        {
            "buffer" : 0,
            "byteLength" : 16704,
            "byteOffset" : 527080
        },
        {
            "buffer" : 0,
            "byteLength" : 13284,
            "byteOffset" : 543784
        },
        {
            "buffer" : 0,
            "byteLength" : 13284,
            "byteOffset" : 557068
        },
        {
            "buffer" : 0,
            "byteLength" : 8856,
            "byteOffset" : 570352
        },
        {
            "buffer" : 0,
            "byteLength" : 4104,
            "byteOffset" : 579208
        },
        {
            "buffer" : 0,
            "byteLength" : 8640,
            "byteOffset" : 583312
        },
        {
            "buffer" : 0,
            "byteLength" : 8640,
            "byteOffset" : 591952
        },
        {
            "buffer" : 0,
            "byteLength" : 5760,
            "byteOffset" : 600592
        },
        {
            "buffer" : 0,
            "byteLength" : 3456,
            "byteOffset" : 606352
        },
        {
            "buffer" : 0,
            "byteLength" : 576,
            "byteOffset" : 609808
        },
        {
            "buffer" : 0,
            "byteLength" : 576,
            "byteOffset" : 610384
        },
        {
            "buffer" : 0,
            "byteLength" : 384,
            "byteOffset" : 610960
        },
        {
            "buffer" : 0,
            "byteLength" : 144,
            "byteOffset" : 611344
        },
        {
            "buffer" : 0,
            "byteLength" : 300,
            "byteOffset" : 611488
        },
        {
            "buffer" : 0,
            "byteLength" : 300,
            "byteOffset" : 611788
        },
        {
            "buffer" : 0,
            "byteLength" : 200,
            "byteOffset" : 612088
        },
        {
            "buffer" : 0,
            "byteLength" : 192,
            "byteOffset" : 612288
        },
        {
            "buffer" : 0,
            "byteLength" : 107640,
            "byteOffset" : 612480
        },
        {
            "buffer" : 0,
            "byteLength" : 107640,
            "byteOffset" : 720120
        },
        {
            "buffer" : 0,
            "byteLength" : 71760,
            "byteOffset" : 827760
        },
        {
            "buffer" : 0,
            "byteLength" : 29808,
            "byteOffset" : 899520
        },
        {
            "buffer" : 0,
            "byteLength" : 110208,
            "byteOffset" : 929328
        },
        {
            "buffer" : 0,
            "byteLength" : 110208,
            "byteOffset" : 1039536
        },
        {
            "buffer" : 0,
            "byteLength" : 73472,
            "byteOffset" : 1149744
        },
        {
            "buffer" : 0,
            "byteLength" : 32748,
            "byteOffset" : 1223216
        },
        {
            "buffer" : 0,
            "byteLength" : 223284,
            "byteOffset" : 1255964
        },
        {
            "buffer" : 0,
            "byteLength" : 223284,
            "byteOffset" : 1479248
        },
        {
            "buffer" : 0,
            "byteLength" : 148856,
            "byteOffset" : 1702532
        },
        {
            "buffer" : 0,
            "byteLength" : 70044,
            "byteOffset" : 1851388
        },
        {
            "buffer" : 0,
            "byteLength" : 394728,
            "byteOffset" : 1921432
        },
        {
            "buffer" : 0,
            "byteLength" : 394728,
            "byteOffset" : 2316160
        },
        {
            "buffer" : 0,
            "byteLength" : 263152,
            "byteOffset" : 2710888
        },
        {
            "buffer" : 0,
            "byteLength" : 99504,
            "byteOffset" : 2974040
        },
        {
            "buffer" : 0,
            "byteLength" : 17280,
            "byteOffset" : 3073544
        },
        {
            "buffer" : 0,
            "byteLength" : 17280,
            "byteOffset" : 3090824
        },
        {
            "buffer" : 0,
            "byteLength" : 11520,
            "byteOffset" : 3108104
        },
        {
            "buffer" : 0,
            "byteLength" : 4320,
            "byteOffset" : 3119624
        }
    ],
    "buffers" : [
        {
            "byteLength" : 3123944,
            "uri" : "data:application/octet-stream;base64,"
        }
    ]
}
