{
    "asset" : {
        "generator" : "Khronos glTF Blender I/O v1.8.19",
        "version" : "2.0"
    },
    "scene" : 0,
    "scenes" : [
        {
            "name" : "Scene",
            "nodes" : [
                0
            ]
        }
    ],
    "nodes" : [
        {
            "mesh" : 0,
            "name" : "lego obj",
            "rotation" : [
                0.7071068286895752,
                0,
                0,
                0.7071067094802856
            ],
            "scale" : [
                0.6083966493606567,
                0.6083966493606567,
                0.6083966493606567
            ],
            "translation" : [
                0,
                6.444471836090088,
                0
            ]
        }
    ],
    "materials" : [
        {
            "doubleSided" : true,
            "name" : "wire_088144225",
            "pbrMetallicRoughness" : {
                "baseColorFactor" : [
                    0.88239985704422,
                    0.07125494629144669,
                    0.20671188831329346,
                    1
                ],
                "metallicFactor" : 0,
                "roughnessFactor" : 0.8211145401000977
            }
        }
    ],
    "meshes" : [
        {
            "name" : "lego obj",
            "primitives" : [
                {
                    "attributes" : {
                        "POSITION" : 0,
                        "NORMAL" : 1,
                        "TEXCOORD_0" : 2
                    },
                    "indices" : 3,
                    "material" : 0
                }
            ]
        }
    ],
    "accessors" : [
        {
            "bufferView" : 0,
            "componentType" : 5126,
            "count" : 29610,
            "max" : [
                49.427101135253906,
                12.131400108337402,
                -0.48980000615119934
            ],
            "min" : [
                9.10200023651123,
                -3.2713000774383545,
                -64.37860107421875
            ],
            "type" : "VEC3"
        },
        {
            "bufferView" : 1,
            "componentType" : 5126,
            "count" : 29610,
            "type" : "VEC3"
        },
        {
            "bufferView" : 2,
            "componentType" : 5126,
            "count" : 29610,
            "type" : "VEC2"
        },
        {
            "bufferView" : 3,
            "componentType" : 5123,
            "count" : 150864,
            "type" : "SCALAR"
        }
    ],
    "bufferViews" : [
        {
            "buffer" : 0,
            "byteLength" : 355320,
            "byteOffset" : 0
        },
        {
            "buffer" : 0,
            "byteLength" : 355320,
            "byteOffset" : 355320
        },
        {
            "buffer" : 0,
            "byteLength" : 236880,
            "byteOffset" : 710640
        },
        {
            "buffer" : 0,
            "byteLength" : 301728,
            "byteOffset" : 947520
        }
    ],
    "buffers" : [
        {
            "byteLength" : 1249248,
            "uri" : "data:application/octet-stream;base64,"
        }
    ]
}
