{
    "asset" : {
        "generator" : "Khronos glTF Blender I/O v1.8.19",
        "version" : "2.0"
    },
    "scene" : 0,
    "scenes" : [
        {
            "name" : "Scene",
            "nodes" : [
                0
            ]
        }
    ],
    "nodes" : [
        {
            "mesh" : 0,
            "name" : "10614_2DoorSportscar-L1",
            "rotation" : [
                0.0016199343372136354,
                0,
                0,
                1
            ],
            "scale" : [
                0.41804563999176025,
                0.41804563999176025,
                0.41804563999176025
            ],
            "translation" : [
                -36.36265563964844,
                70.94050598144531,
                -5.001063346862793
            ]
        }
    ],
    "materials" : [
        {
            "doubleSided" : true,
            "name" : "_10614_2DoorSportscarblinn1SG",
            "pbrMetallicRoughness" : {
                "baseColorFactor" : [
                    0,
                    0.5899999737739563,
                    1,
                    0.20000000298023224
                ],
                "metallicFactor" : 0,
                "roughnessFactor" : 0.6837722063064575
            }
        },
        {
            "doubleSided" : true,
            "name" : "_10614_2DoorSportscarblinn4SG",
            "pbrMetallicRoughness" : {
                "baseColorTexture" : {
                    "index" : 0
                },
                "metallicFactor" : 0,
                "roughnessFactor" : 0.7354248762130737
            }
        },
        {
            "doubleSided" : true,
            "name" : "_10614_2DoorSportscarblinn3SG",
            "pbrMetallicRoughness" : {
                "baseColorTexture" : {
                    "index" : 1
                },
                "metallicFactor" : 0,
                "roughnessFactor" : 0.7550510168075562
            }
        },
        {
            "doubleSided" : true,
            "name" : "_10614_2DoorSportscarblinn3SGrubber",
            "pbrMetallicRoughness" : {
                "baseColorTexture" : {
                    "index" : 2
                },
                "metallicFactor" : 0,
                "roughnessFactor" : 0.8999999761581421
            }
        },
        {
            "doubleSided" : true,
            "name" : "_10614_2DoorSportscarblinn5SG",
            "pbrMetallicRoughness" : {
                "baseColorFactor" : [
                    1,
                    0.47999998927116394,
                    0,
                    0.7200000286102295
                ],
                "metallicFactor" : 0,
                "roughnessFactor" : 0.7316718697547913
            }
        }
    ],
    "meshes" : [
        {
            "name" : "10614_2DoorSportscar-L1",
            "primitives" : [
                {
                    "attributes" : {
                        "POSITION" : 0,
                        "NORMAL" : 1,
                        "TEXCOORD_0" : 2
                    },
                    "indices" : 3,
                    "material" : 0
                },
                {
                    "attributes" : {
                        "POSITION" : 4,
                        "NORMAL" : 5,
                        "TEXCOORD_0" : 6
                    },
                    "indices" : 7,
                    "material" : 1
                },
                {
                    "attributes" : {
                        "POSITION" : 8,
                        "NORMAL" : 9,
                        "TEXCOORD_0" : 10
                    },
                    "indices" : 11,
                    "material" : 2
                },
                {
                    "attributes" : {
                        "POSITION" : 12,
                        "NORMAL" : 13,
                        "TEXCOORD_0" : 14
                    },
                    "indices" : 15,
                    "material" : 3
                },
                {
                    "attributes" : {
                        "POSITION" : 16,
                        "NORMAL" : 17,
                        "TEXCOORD_0" : 18
                    },
                    "indices" : 19,
                    "material" : 4
                }
            ]
        }
    ],
    "textures" : [
        {
            "sampler" : 0,
            "source" : 0
        },
        {
            "sampler" : 0,
            "source" : 0
        },
        {
            "sampler" : 0,
            "source" : 1
        }
    ],
    "images" : [
        {
            "bufferView" : 8,
            "mimeType" : "image/jpeg",
            "name" : "Lakerem"
        },
        {
            "bufferView" : 17,
            "mimeType" : "image/jpeg",
            "name" : "Sportscar_C"
        }
    ],
    "accessors" : [
        {
            "bufferView" : 0,
            "componentType" : 5126,
            "count" : 1863,
            "max" : [
                100.22489929199219,
                60.305999755859375,
                244.78909301757812
            ],
            "min" : [
                -57.82099914550781,
                -30.66119956970215,
                -211.49490356445312
            ],
            "type" : "VEC3"
        },
        {
            "bufferView" : 1,
            "componentType" : 5126,
            "count" : 1863,
            "type" : "VEC3"
        },
        {
            "bufferView" : 2,
            "componentType" : 5126,
            "count" : 1863,
            "type" : "VEC2"
        },
        {
            "bufferView" : 3,
            "componentType" : 5123,
            "count" : 7746,
            "type" : "SCALAR"
        },
        {
            "bufferView" : 4,
            "componentType" : 5126,
            "count" : 13550,
            "max" : [
                121.0260009765625,
                35.63570022583008,
                243.58250427246094
            ],
            "min" : [
                -78.62210083007812,
                -55.327301025390625,
                -210.96420288085938
            ],
            "type" : "VEC3"
        },
        {
            "bufferView" : 5,
            "componentType" : 5126,
            "count" : 13550,
            "type" : "VEC3"
        },
        {
            "bufferView" : 6,
            "componentType" : 5126,
            "count" : 13550,
            "type" : "VEC2"
        },
        {
            "bufferView" : 7,
            "componentType" : 5123,
            "count" : 72738,
            "type" : "SCALAR"
        },
        {
            "bufferView" : 9,
            "componentType" : 5126,
            "count" : 11710,
            "max" : [
                121.69850158691406,
                62.402000427246094,
                249.78489685058594
            ],
            "min" : [
                -79.29450225830078,
                -42.729801177978516,
                -225.87469482421875
            ],
            "type" : "VEC3"
        },
        {
            "bufferView" : 10,
            "componentType" : 5126,
            "count" : 11710,
            "type" : "VEC3"
        },
        {
            "bufferView" : 11,
            "componentType" : 5126,
            "count" : 11710,
            "type" : "VEC2"
        },
        {
            "bufferView" : 12,
            "componentType" : 5123,
            "count" : 53358,
            "type" : "SCALAR"
        },
        {
            "bufferView" : 13,
            "componentType" : 5126,
            "count" : 8165,
            "max" : [
                108.89459991455078,
                62.65420150756836,
                238.53729248046875
            ],
            "min" : [
                -66.4906997680664,
                -60.62459945678711,
                -209.55560302734375
            ],
            "type" : "VEC3"
        },
        {
            "bufferView" : 14,
            "componentType" : 5126,
            "count" : 8165,
            "type" : "VEC3"
        },
        {
            "bufferView" : 15,
            "componentType" : 5126,
            "count" : 8165,
            "type" : "VEC2"
        },
        {
            "bufferView" : 16,
            "componentType" : 5123,
            "count" : 39594,
            "type" : "SCALAR"
        },
        {
            "bufferView" : 18,
            "componentType" : 5126,
            "count" : 86,
            "max" : [
                99.4623031616211,
                -3.999000072479248,
                219.3625030517578
            ],
            "min" : [
                -57.05839920043945,
                -6.386899948120117,
                202.76499938964844
            ],
            "type" : "VEC3"
        },
        {
            "bufferView" : 19,
            "componentType" : 5126,
            "count" : 86,
            "type" : "VEC3"
        },
        {
            "bufferView" : 20,
            "componentType" : 5126,
            "count" : 86,
            "type" : "VEC2"
        },
        {
            "bufferView" : 21,
            "componentType" : 5123,
            "count" : 240,
            "type" : "SCALAR"
        }
    ],
    "bufferViews" : [
        {
            "buffer" : 0,
            "byteLength" : 22356,
            "byteOffset" : 0
        },
        {
            "buffer" : 0,
            "byteLength" : 22356,
            "byteOffset" : 22356
        },
        {
            "buffer" : 0,
            "byteLength" : 14904,
            "byteOffset" : 44712
        },
        {
            "buffer" : 0,
            "byteLength" : 15492,
            "byteOffset" : 59616
        },
        {
            "buffer" : 0,
            "byteLength" : 162600,
            "byteOffset" : 75108
        },
        {
            "buffer" : 0,
            "byteLength" : 162600,
            "byteOffset" : 237708
        },
        {
            "buffer" : 0,
            "byteLength" : 108400,
            "byteOffset" : 400308
        },
        {
            "buffer" : 0,
            "byteLength" : 145476,
            "byteOffset" : 508708
        },
        {
            "buffer" : 0,
            "byteLength" : 207477,
            "byteOffset" : 654184
        },
        {
            "buffer" : 0,
            "byteLength" : 140520,
            "byteOffset" : 861664
        },
        {
            "buffer" : 0,
            "byteLength" : 140520,
            "byteOffset" : 1002184
        },
        {
            "buffer" : 0,
            "byteLength" : 93680,
            "byteOffset" : 1142704
        },
        {
            "buffer" : 0,
            "byteLength" : 106716,
            "byteOffset" : 1236384
        },
        {
            "buffer" : 0,
            "byteLength" : 97980,
            "byteOffset" : 1343100
        },
        {
            "buffer" : 0,
            "byteLength" : 97980,
            "byteOffset" : 1441080
        },
        {
            "buffer" : 0,
            "byteLength" : 65320,
            "byteOffset" : 1539060
        },
        {
            "buffer" : 0,
            "byteLength" : 79188,
            "byteOffset" : 1604380
        },
        {
            "buffer" : 0,
            "byteLength" : 389270,
            "byteOffset" : 1683568
        },
        {
            "buffer" : 0,
            "byteLength" : 1032,
            "byteOffset" : 2072840
        },
        {
            "buffer" : 0,
            "byteLength" : 1032,
            "byteOffset" : 2073872
        },
        {
            "buffer" : 0,
            "byteLength" : 688,
            "byteOffset" : 2074904
        },
        {
            "buffer" : 0,
            "byteLength" : 480,
            "byteOffset" : 2075592
        }
    ],
    "samplers" : [
        {
            "magFilter" : 9729,
            "minFilter" : 9987
        }
    ],
    "buffers" : [
        {
            "byteLength" : 2076072,
            "uri" : "data:application/octet-stream;base64,"
        }
    ]
}
